<?xml version="1.0" encoding="utf-8"?>
<!-- Generator: Adobe Illustrator 24.1.0, SVG Export Plug-In . SVG Version: 6.00 Build 0)  -->
<svg version="1.1" id="Layer_1" xmlns="http://www.w3.org/2000/svg" xmlns:xlink="http://www.w3.org/1999/xlink" x="0px" y="0px"
	 viewBox="0 0 204.4094849 45" style="enable-background:new 0 0 204.4094849 45;" xml:space="preserve">
<style type="text/css">
	.st0{fill:#C00A44;}
	.st1{display:none;}
	.st2{display:inline;}
	.st3{fill:#231F20;}
</style>
<g>
	<polygon class="st0" points="9,45 0,36 0,0 9,9 	"/>
	<polygon class="st0" points="45,36 36,45 36,9 45,0 	"/>
	<polygon class="st0" points="27,45 18,36 18,0 27,9 	"/>
</g>
<g class="st1">
	<g class="st2">
		<path class="st3" d="M59.1396027,36.8196983v-5.8999977h1.5799942v5.8859978c0,1.5400009,0.75,2.3440018,1.9760056,2.3440018
			c1.1989975,0,1.9629974-0.7770004,1.9629974-2.2890015v-5.9409981h1.5670013v5.8450012
			c0,2.5619965-1.4039993,3.8429947-3.5569992,3.8429947C60.543602,40.6076965,59.1396027,39.3137016,59.1396027,36.8196983"/>
		<polygon class="st3" points="69.4860001,30.9196014 70.9579926,30.9196014 75.1539993,37.2836037 75.1539993,30.9196014 
			76.6949997,30.9196014 76.6949997,40.4576035 75.3589935,40.4576035 71.0389938,33.9036026 71.0389938,40.4576035 
			69.4860001,40.4576035 		"/>
		<rect x="80.0719986" y="30.9199982" class="st3" width="1.5810013" height="9.5380001"/>
		<polygon class="st3" points="84.1860962,30.9196014 85.9030914,30.9196014 88.2470932,38.1276016 90.5900955,30.9196014 
			92.2530823,30.9196014 88.9560928,40.5126038 87.4970932,40.5126038 		"/>
		<polygon class="st3" points="94.776001,30.9196014 100.7849884,30.9196014 100.7849884,32.350605 96.3429871,32.350605 
			96.3429871,34.9396019 100.2809906,34.9396019 100.2809906,36.3706017 96.3429871,36.3706017 96.3429871,39.0276031 
			100.8529968,39.0276031 100.8529968,40.4576035 94.776001,40.4576035 		"/>
		<path class="st3" d="M106.9904938,35.6746025c1.2259979,0,1.9079895-0.6539993,1.9079895-1.6479988v-0.0279999
			c0-1.0760002-0.6949921-1.6350021-1.8809967-1.6350021h-1.7299957v3.3110008H106.9904938z M103.7064972,30.9196014h3.447998
			c1.0899963,0,1.9749908,0.3270035,2.5479889,0.8990021c0.5040131,0.5050011,0.7900085,1.2259979,0.7900085,2.098999v0.0540009
			c0,1.4720001-0.8180084,2.3849983-1.9759979,2.7929993l2.2489929,3.6930008h-1.826004l-2.0309906-3.3790016
			c-0.0270081,0.0139999-0.0680084,0.0139999-0.0950012,0.0139999h-1.526001v3.3650017h-1.5809937V30.9196014z"/>
		<path class="st3" d="M112.6721039,39.2042999l0.9539948-1.185997c0.7079926,0.6409988,1.4989929,1.132,2.5070038,1.132
			c0.9129944,0,1.4989929-0.5050011,1.4989929-1.2140007v-0.0130005c0-0.598999-0.3139954-0.9949989-1.826004-1.5530014
			c-1.8119965-0.6819992-2.7519989-1.3499985-2.7519989-2.875v-0.0279999c0-1.5669975,1.253006-2.6709976,3.0250092-2.6709976
			c1.1029968,0,2.125,0.3540001,2.996994,1.118l-0.8990021,1.211998c-0.6539917-0.5309982-1.3759918-0.8989983-2.1389923-0.8989983
			c-0.8590088,0-1.3899994,0.4769974-1.3899994,1.1040001v0.0139999c0,0.6669998,0.3539886,1.0219994,1.9749908,1.6479988
			c1.7720032,0.6819992,2.5899963,1.4179993,2.5899963,2.8069992v0.0279999c0,1.6760025-1.3079987,2.7519989-3.0939941,2.7519989
			C114.8930969,40.5802994,113.7070923,40.1583023,112.6721039,39.2042999"/>
		<rect x="122.1060028" y="30.9199982" class="st3" width="1.5809937" height="9.5380001"/>
		<polygon class="st3" points="128.7796021,32.391201 126.2725983,32.391201 126.2725983,30.9192047 132.8675995,30.9192047 
			132.8675995,32.391201 130.3605957,32.391201 130.3605957,40.4582024 128.7796021,40.4582024 		"/>
		<polygon class="st3" points="137.5065002,36.6559982 134.2904968,30.9199982 136.1024933,30.9199982 138.3104858,35.0480003 
			140.5314941,30.9199982 142.2894897,30.9199982 139.0874939,36.6430016 139.0874939,40.4580002 137.5065002,40.4580002 		"/>
	</g>
	<g class="st2">
		<polygon class="st3" points="56.1288986,4.5688019 59.2928925,4.5688019 62.8168945,17.6378021 66.4958954,4.5168076 
			69.0688934,4.5168076 72.7478943,17.6378021 76.2728958,4.5688019 79.3588943,4.5688019 74.1108932,22.6798019 
			71.4098969,22.6798019 67.7318954,9.9708023 64.0528946,22.6798019 61.3518982,22.6798019 		"/>
		<polygon class="st3" points="81.8551025,4.5688019 84.8390961,4.5688019 84.8390961,12.1318054 91.9141006,12.1318054 
			91.9141006,4.5688019 94.8981018,4.5688019 94.8981018,22.5768013 91.9141006,22.5768013 91.9141006,14.9108047 
			84.8390961,14.9108047 84.8390961,22.5768013 81.8551025,22.5768013 		"/>
		<rect x="98.9149933" y="4.5690002" class="st3" width="2.9839935" height="18.0079994"/>
		<polygon class="st3" points="109.2424927,7.3470993 104.5084839,7.3470993 104.5084839,4.5690994 116.9604797,4.5690994 
			116.9604797,7.3470993 112.2254791,7.3470993 112.2254791,22.5770988 109.2424927,22.5770988 		"/>
		<polygon class="st3" points="118.7297974,4.5688019 121.8937836,4.5688019 125.4187927,17.6378021 129.0967865,4.5168076 
			131.6697845,4.5168076 135.3487854,17.6378021 138.8737946,4.5688019 141.9597931,4.5688019 136.711792,22.6798019 
			134.010788,22.6798019 130.3327942,9.9708023 126.6537933,22.6798019 123.9527893,22.6798019 		"/>
		<path class="st3" d="M155.885788,13.6760025v-0.1800003c0-3.8590012-2.0569916-6.4580002-4.9129944-6.4580002
			c-2.8300018,0-4.8619995,2.5470009-4.8619995,6.4319992v0.1800003c0,3.8590012,2.0839996,6.4570007,4.9129944,6.4570007
			C153.8537903,20.1070023,155.885788,17.5600014,155.885788,13.6760025 M143.0227966,13.7270012v-0.257
			c0-5.3509979,3.2929993-9.1839981,8.0009918-9.1839981c4.6829987,0,7.9499969,3.8069992,7.9499969,9.132v0.2579994
			c0,5.3510017-3.2929993,9.1840019-8.0009918,9.1840019C146.2907867,22.8600044,143.0227966,19.0530014,143.0227966,13.7270012"/>
		<path class="st3" d="M168.2080994,13.547802c2.3159943,0,3.6019897-1.2349968,3.6019897-3.1139984v-0.0509987
			c0-2.0320015-1.3119965-3.086998-3.5499878-3.086998h-3.2680054v6.2519951H168.2080994z M162.0081024,4.5688019h6.5089874
			c2.0579987,0,3.730011,0.6170044,4.8110046,1.6980057c0.951004,0.9519958,1.4929962,2.3149948,1.4929962,3.9619942v0.1030006
			c0,2.7779999-1.5439911,4.5020027-3.7310028,5.2740021l4.2440033,6.9709969h-3.446991l-3.8330078-6.3799973
			c-0.052002,0.026001-0.1289978,0.026001-0.1799927,0.026001h-2.8820038v6.3539963h-2.9839935V4.5688019z"/>
		<polygon class="st3" points="181.3157043,7.3470993 176.5816956,7.3470993 176.5816956,4.5690994 189.0336914,4.5690994 
			189.0336914,7.3470993 184.2986908,7.3470993 184.2986908,22.5770988 181.3157043,22.5770988 		"/>
		<polygon class="st3" points="191.3654938,4.5688019 194.3494873,4.5688019 194.3494873,12.1318054 201.4254913,12.1318054 
			201.4254913,4.5688019 204.4094849,4.5688019 204.4094849,22.5768013 201.4254913,22.5768013 201.4254913,14.9108047 
			194.3494873,14.9108047 194.3494873,22.5768013 191.3654938,22.5768013 		"/>
	</g>
</g>
<g>
	<g>
		<path d="M59.1396027,36.8196983v-5.8999977h1.5799942v5.8859978c0,1.5400009,0.75,2.3440018,1.9760056,2.3440018
			c1.1989975,0,1.9629974-0.7770004,1.9629974-2.2890015v-5.9409981h1.5670013v5.8450012
			c0,2.5619965-1.4039993,3.8429947-3.5569992,3.8429947C60.543602,40.6076965,59.1396027,39.3137016,59.1396027,36.8196983"/>
		<polygon points="69.4860001,30.9196014 70.9579926,30.9196014 75.1539993,37.2836037 75.1539993,30.9196014 
			76.6949997,30.9196014 76.6949997,40.4576035 75.3589935,40.4576035 71.0389938,33.9036026 71.0389938,40.4576035 
			69.4860001,40.4576035 		"/>
		<rect x="80.0719986" y="30.9199982" width="1.5810013" height="9.5380001"/>
		<polygon points="84.1860962,30.9196014 85.9030914,30.9196014 88.2470932,38.1276016 90.5900955,30.9196014 
			92.2530823,30.9196014 88.9560928,40.5126038 87.4970932,40.5126038 		"/>
		<polygon points="94.776001,30.9196014 100.7849884,30.9196014 100.7849884,32.350605 96.3429871,32.350605 96.3429871,34.9396019 
			100.2809906,34.9396019 100.2809906,36.3706017 96.3429871,36.3706017 96.3429871,39.0276031 100.8529968,39.0276031 
			100.8529968,40.4576035 94.776001,40.4576035 		"/>
		<path d="M106.9904938,35.6746025c1.2259979,0,1.9079895-0.6539993,1.9079895-1.6479988v-0.0279999
			c0-1.0760002-0.6949921-1.6350021-1.8809967-1.6350021h-1.7299957v3.3110008H106.9904938z M103.7064972,30.9196014h3.447998
			c1.0899963,0,1.9749908,0.3270035,2.5479889,0.8990021c0.5040131,0.5050011,0.7900085,1.2259979,0.7900085,2.098999v0.0540009
			c0,1.4720001-0.8180084,2.3849983-1.9759979,2.7929993l2.2489929,3.6930008h-1.826004l-2.0309906-3.3790016
			c-0.0270081,0.0139999-0.0680084,0.0139999-0.0950012,0.0139999h-1.526001v3.3650017h-1.5809937V30.9196014z"/>
		<path d="M112.6721039,39.2042999l0.9539948-1.185997c0.7079926,0.6409988,1.4989929,1.132,2.5070038,1.132
			c0.9129944,0,1.4989929-0.5050011,1.4989929-1.2140007v-0.0130005c0-0.598999-0.3139954-0.9949989-1.826004-1.5530014
			c-1.8119965-0.6819992-2.7519989-1.3499985-2.7519989-2.875v-0.0279999c0-1.5669975,1.253006-2.6709976,3.0250092-2.6709976
			c1.1029968,0,2.125,0.3540001,2.996994,1.118l-0.8990021,1.211998c-0.6539917-0.5309982-1.3759918-0.8989983-2.1389923-0.8989983
			c-0.8590088,0-1.3899994,0.4769974-1.3899994,1.1040001v0.0139999c0,0.6669998,0.3539886,1.0219994,1.9749908,1.6479988
			c1.7720032,0.6819992,2.5899963,1.4179993,2.5899963,2.8069992v0.0279999c0,1.6760025-1.3079987,2.7519989-3.0939941,2.7519989
			C114.8930969,40.5802994,113.7070923,40.1583023,112.6721039,39.2042999"/>
		<rect x="122.1060028" y="30.9199982" width="1.5809937" height="9.5380001"/>
		<polygon points="128.7796021,32.391201 126.2725983,32.391201 126.2725983,30.9192047 132.8675995,30.9192047 
			132.8675995,32.391201 130.3605957,32.391201 130.3605957,40.4582024 128.7796021,40.4582024 		"/>
		<polygon points="137.5065002,36.6559982 134.2904968,30.9199982 136.1024933,30.9199982 138.3104858,35.0480003 
			140.5314941,30.9199982 142.2894897,30.9199982 139.0874939,36.6430016 139.0874939,40.4580002 137.5065002,40.4580002 		"/>
	</g>
	<g>
		<polygon points="56.1288986,4.5688019 59.2928925,4.5688019 62.8168945,17.6378021 66.4958954,4.5168076 69.0688934,4.5168076 
			72.7478943,17.6378021 76.2728958,4.5688019 79.3588943,4.5688019 74.1108932,22.6798019 71.4098969,22.6798019 
			67.7318954,9.9708023 64.0528946,22.6798019 61.3518982,22.6798019 		"/>
		<polygon points="81.8551025,4.5688019 84.8390961,4.5688019 84.8390961,12.1318054 91.9141006,12.1318054 91.9141006,4.5688019 
			94.8981018,4.5688019 94.8981018,22.5768013 91.9141006,22.5768013 91.9141006,14.9108047 84.8390961,14.9108047 
			84.8390961,22.5768013 81.8551025,22.5768013 		"/>
		<rect x="98.9149933" y="4.5690002" width="2.9839935" height="18.0079994"/>
		<polygon points="109.2424927,7.3470993 104.5084839,7.3470993 104.5084839,4.5690994 116.9604797,4.5690994 
			116.9604797,7.3470993 112.2254791,7.3470993 112.2254791,22.5770988 109.2424927,22.5770988 		"/>
		<polygon points="118.7297974,4.5688019 121.8937836,4.5688019 125.4187927,17.6378021 129.0967865,4.5168076 
			131.6697845,4.5168076 135.3487854,17.6378021 138.8737946,4.5688019 141.9597931,4.5688019 136.711792,22.6798019 
			134.010788,22.6798019 130.3327942,9.9708023 126.6537933,22.6798019 123.9527893,22.6798019 		"/>
		<path d="M155.885788,13.6760025v-0.1800003c0-3.8590012-2.0569916-6.4580002-4.9129944-6.4580002
			c-2.8300018,0-4.8619995,2.5470009-4.8619995,6.4319992v0.1800003c0,3.8590012,2.0839996,6.4570007,4.9129944,6.4570007
			C153.8537903,20.1070023,155.885788,17.5600014,155.885788,13.6760025 M143.0227966,13.7270012v-0.257
			c0-5.3509979,3.2929993-9.1839981,8.0009918-9.1839981c4.6829987,0,7.9499969,3.8069992,7.9499969,9.132v0.2579994
			c0,5.3510017-3.2929993,9.1840019-8.0009918,9.1840019C146.2907867,22.8600044,143.0227966,19.0530014,143.0227966,13.7270012"/>
		<path d="M168.2080994,13.547802c2.3159943,0,3.6019897-1.2349968,3.6019897-3.1139984v-0.0509987
			c0-2.0320015-1.3119965-3.086998-3.5499878-3.086998h-3.2680054v6.2519951H168.2080994z M162.0081024,4.5688019h6.5089874
			c2.0579987,0,3.730011,0.6170044,4.8110046,1.6980057c0.951004,0.9519958,1.4929962,2.3149948,1.4929962,3.9619942v0.1030006
			c0,2.7779999-1.5439911,4.5020027-3.7310028,5.2740021l4.2440033,6.9709969h-3.446991l-3.8330078-6.3799973
			c-0.052002,0.026001-0.1289978,0.026001-0.1799927,0.026001h-2.8820038v6.3539963h-2.9839935V4.5688019z"/>
		<polygon points="181.3157043,7.3470993 176.5816956,7.3470993 176.5816956,4.5690994 189.0336914,4.5690994 
			189.0336914,7.3470993 184.2986908,7.3470993 184.2986908,22.5770988 181.3157043,22.5770988 		"/>
		<polygon points="191.3654938,4.5688019 194.3494873,4.5688019 194.3494873,12.1318054 201.4254913,12.1318054 
			201.4254913,4.5688019 204.4094849,4.5688019 204.4094849,22.5768013 201.4254913,22.5768013 201.4254913,14.9108047 
			194.3494873,14.9108047 194.3494873,22.5768013 191.3654938,22.5768013 		"/>
	</g>
</g>
</svg>
